<svg xmlns="http://www.w3.org/2000/svg" xmlns:xlink="http://www.w3.org/1999/xlink" viewBox="0 0 336.32 106.09"><defs><style>.cls-1{isolation:isolate;}.cls-2{fill:url(#linear-gradient);}.cls-3{opacity:0.7;mix-blend-mode:multiply;fill:url(#linear-gradient-2);}.cls-4{fill:url(#linear-gradient-3);}.cls-5{fill:#fff;}</style><linearGradient id="linear-gradient" y1="79.55" x2="88.4" y2="79.55" gradientUnits="userSpaceOnUse"><stop offset="0.01" stop-color="#3cb5fb"/><stop offset="1" stop-color="#0071ff"/></linearGradient><linearGradient id="linear-gradient-2" x1="56.33" y1="99.52" x2="32.17" y2="57.66" gradientUnits="userSpaceOnUse"><stop offset="0.46" stop-color="#fff"/><stop offset="0.54" stop-color="#fcfcfc"/><stop offset="0.61" stop-color="#f1f1f1"/><stop offset="0.68" stop-color="#dfdfdf"/><stop offset="0.74" stop-color="#c6c6c6"/><stop offset="0.8" stop-color="#a5a5a5"/><stop offset="0.86" stop-color="#7d7d7d"/><stop offset="0.92" stop-color="#4e4e4e"/><stop offset="0.98" stop-color="#181818"/><stop offset="1"/></linearGradient><linearGradient id="linear-gradient-3" x1="0.34" y1="38.55" x2="86.82" y2="38.55" gradientUnits="userSpaceOnUse"><stop offset="0.03" stop-color="#00fdfa"/><stop offset="0.29" stop-color="#40fefb"/><stop offset="0.89" stop-color="#e0fffe"/><stop offset="1" stop-color="#fff"/></linearGradient></defs><title>logo02</title><g class="cls-1"><g id="Capa_2" data-name="Capa 2"><g id="Capa_1-2" data-name="Capa 1"><polygon class="cls-2" points="88.41 79.9 40.22 53.01 0 77.11 44.94 106.09 88.41 79.9"/><polygon class="cls-3" points="88.41 79.9 40.22 53.01 0 77.11 44.94 106.09 88.41 79.9"/><polygon class="cls-4" points="86.82 25.2 45.19 0 0.34 29.19 0.34 77.11 86.82 25.2"/><path class="cls-5" d="M118.53,55.43H103.64v16H95.13V32.35h8.51V47.87h14.89V32.35h8.52V71.44h-8.52Z"/><path class="cls-5" d="M147.49,72.11a15.54,15.54,0,0,1-6-1.09A12.43,12.43,0,0,1,137,67.94a12.9,12.9,0,0,1-2.74-4.84,22.46,22.46,0,0,1,0-12.69,13.37,13.37,0,0,1,2.66-4.84,11.88,11.88,0,0,1,4.34-3.11,14.93,14.93,0,0,1,5.88-1.09,14.47,14.47,0,0,1,6.24,1.23,11.66,11.66,0,0,1,4.26,3.31,13.39,13.39,0,0,1,2.41,4.78,21.35,21.35,0,0,1,.75,5.69v2.46H141.94v.45a6.47,6.47,0,0,0,1.57,4.58c1,1.13,2.69,1.69,4.93,1.69a7.73,7.73,0,0,0,4.2-1,15.94,15.94,0,0,0,3-2.47l4.15,5.17a13.15,13.15,0,0,1-5.13,3.59A18.92,18.92,0,0,1,147.49,72.11Zm-.17-24.64a4.92,4.92,0,0,0-3.95,1.66,6.48,6.48,0,0,0-1.43,4.39V54h10.31v-.5A7.2,7.2,0,0,0,151,49.13,4.27,4.27,0,0,0,147.32,47.47Z"/><path class="cls-5" d="M162.94,71.44l9.69-14.95L163.05,42h9.41L178,51.28h.22L183.49,42h8.74l-9.74,14.73,9.8,14.67h-9.41l-5.66-9.57H177l-5.43,9.57Z"/><path class="cls-5" d="M218.89,71.44a5.19,5.19,0,0,1-3.73-1.4,6.4,6.4,0,0,1-1.87-3.75H213a6.82,6.82,0,0,1-3,4.34,10.18,10.18,0,0,1-5.65,1.48q-4.43,0-6.78-2.34a8.35,8.35,0,0,1-2.35-6.2,7.71,7.71,0,0,1,3.39-6.89q3.38-2.26,9.21-2.26h4.65V52.57a5,5,0,0,0-1.12-3.39,4.83,4.83,0,0,0-3.76-1.26A6.51,6.51,0,0,0,203.65,49a10.51,10.51,0,0,0-2.4,2.4L196.32,47a12.86,12.86,0,0,1,4.51-4.14,15.39,15.39,0,0,1,7.36-1.49q6.27,0,9.41,2.74t3.13,8V65h2.75v6.44Zm-11.48-5.09a6.8,6.8,0,0,0,3.55-.89,3.12,3.12,0,0,0,1.49-2.89V59.12h-4c-3.24,0-4.87,1.09-4.87,3.28v.83a2.77,2.77,0,0,0,1,2.37A4.71,4.71,0,0,0,207.41,66.35Z"/><path class="cls-5" d="M239,71.44q-4.32,0-6.52-2.18t-2.22-6.39V48.48h-4.14V42h2.07a2.75,2.75,0,0,0,2.3-.81,3.79,3.79,0,0,0,.61-2.32V34.09h7.45V42h5.83v6.44h-5.83V65h5.38v6.44Z"/><path class="cls-5" d="M262.17,72.11a15.49,15.49,0,0,1-6-1.09,12.34,12.34,0,0,1-4.45-3.08A12.9,12.9,0,0,1,249,63.1a22.46,22.46,0,0,1,0-12.69,13.22,13.22,0,0,1,2.66-4.84A11.79,11.79,0,0,1,256,42.46a14.86,14.86,0,0,1,5.88-1.09,14.5,14.5,0,0,1,6.24,1.23,11.66,11.66,0,0,1,4.26,3.31,13.39,13.39,0,0,1,2.41,4.78,21.35,21.35,0,0,1,.75,5.69v2.46H256.63v.45a6.47,6.47,0,0,0,1.57,4.58c1,1.13,2.69,1.69,4.93,1.69a7.73,7.73,0,0,0,4.2-1,15.94,15.94,0,0,0,3-2.47l4.14,5.17a13,13,0,0,1-5.12,3.59A18.94,18.94,0,0,1,262.17,72.11ZM262,47.47a4.92,4.92,0,0,0-3.95,1.66,6.48,6.48,0,0,0-1.43,4.39V54h10.3v-.5a7.2,7.2,0,0,0-1.2-4.34A4.27,4.27,0,0,0,262,47.47Z"/><path class="cls-5" d="M293.25,72.11A14.93,14.93,0,0,1,287.37,71a11.73,11.73,0,0,1-4.31-3.08,13.28,13.28,0,0,1-2.63-4.84,21.22,21.22,0,0,1-.9-6.39,20.86,20.86,0,0,1,.9-6.35,13.66,13.66,0,0,1,2.63-4.85,11.39,11.39,0,0,1,4.31-3.08,15.49,15.49,0,0,1,5.88-1.06,13.07,13.07,0,0,1,7.48,2A11,11,0,0,1,305,49L298.29,52a5.59,5.59,0,0,0-1.62-2.85,4.72,4.72,0,0,0-3.42-1.18,4.51,4.51,0,0,0-3.8,1.65A7,7,0,0,0,288.16,54v5.47a7,7,0,0,0,1.29,4.44,4.53,4.53,0,0,0,3.8,1.64,4.75,4.75,0,0,0,3.67-1.31,8.87,8.87,0,0,0,1.82-3.11l6.44,2.8a11.54,11.54,0,0,1-4.51,6.2A13.39,13.39,0,0,1,293.25,72.11Z"/><path class="cls-5" d="M310.33,30h8.29V47H319a9,9,0,0,1,2.74-4A9.43,9.43,0,0,1,334,44.39q2.33,3,2.33,8.63V71.44H328V53.69a7.87,7.87,0,0,0-.9-4.23,3.52,3.52,0,0,0-3.19-1.37,7.58,7.58,0,0,0-2,.25,5.18,5.18,0,0,0-1.71.81,4.4,4.4,0,0,0-1.2,1.38,3.78,3.78,0,0,0-.45,1.87v19h-8.29Z"/></g></g></g></svg>